<svg width="30" height="30" viewBox="0 0 30 30" fill="none" xmlns="http://www.w3.org/2000/svg">
<path d="M26.25 14.0625V25.3125C26.25 25.5611 26.1512 25.7996 25.9754 25.9754C25.7996 26.1512 25.5611 26.25 25.3125 26.25H18.75C18.5014 26.25 18.2629 26.1512 18.0871 25.9754C17.9113 25.7996 17.8125 25.5611 17.8125 25.3125V19.2187C17.8125 19.0944 17.7631 18.9752 17.6752 18.8873C17.5873 18.7994 17.4681 18.75 17.3438 18.75H12.6562C12.5319 18.75 12.4127 18.7994 12.3248 18.8873C12.2369 18.9752 12.1875 19.0944 12.1875 19.2187V25.3125C12.1875 25.5611 12.0887 25.7996 11.9129 25.9754C11.7371 26.1512 11.4986 26.25 11.25 26.25H4.6875C4.43886 26.25 4.2004 26.1512 4.02459 25.9754C3.84877 25.7996 3.75 25.5611 3.75 25.3125V14.0625C3.75023 13.5653 3.94793 13.0885 4.29961 12.7371L13.6746 3.36209C14.0262 3.01073 14.5029 2.81335 15 2.81335C15.4971 2.81335 15.9738 3.01073 16.3254 3.36209L25.7004 12.7371C26.0521 13.0885 26.2498 13.5653 26.25 14.0625Z" fill="black"/>
</svg>
