<svg width="320" height="80" viewBox="0 0 320 80" fill="none" xmlns="http://www.w3.org/2000/svg">
<path d="M29.9504 31.6875C29.7913 30.1989 29.1209 29.0398 27.9391 28.2102C26.7686 27.3807 25.2459 26.9659 23.3709 26.9659C22.0527 26.9659 20.922 27.1648 19.9788 27.5625C19.0356 27.9602 18.3141 28.5 17.8141 29.1818C17.3141 29.8636 17.0584 30.642 17.047 31.517C17.047 32.2443 17.2118 32.875 17.5413 33.4091C17.8822 33.9432 18.3425 34.3977 18.922 34.7727C19.5016 35.1364 20.1436 35.4432 20.8481 35.6932C21.5527 35.9432 22.2629 36.1534 22.9788 36.3239L26.2516 37.142C27.5697 37.4489 28.8368 37.8636 30.0527 38.3864C31.28 38.9091 32.3766 39.5682 33.3425 40.3636C34.3197 41.1591 35.0925 42.1193 35.6606 43.2443C36.2288 44.3693 36.5129 45.6875 36.5129 47.1989C36.5129 49.2443 35.9902 51.0455 34.9447 52.6023C33.8993 54.1477 32.3879 55.358 30.4106 56.233C28.4447 57.0966 26.0641 57.5284 23.2686 57.5284C20.5527 57.5284 18.1947 57.108 16.1947 56.267C14.2061 55.4261 12.6493 54.1989 11.5243 52.5852C10.4106 50.9716 9.80837 49.0057 9.71746 46.6875H15.9391C16.03 47.9034 16.405 48.9148 17.0641 49.7216C17.7231 50.5284 18.5811 51.1307 19.6379 51.5284C20.7061 51.9261 21.8993 52.125 23.2175 52.125C24.5925 52.125 25.797 51.9205 26.8311 51.5114C27.8766 51.0909 28.6947 50.5114 29.2856 49.7727C29.8766 49.0227 30.1777 48.1477 30.1891 47.1477C30.1777 46.2386 29.9106 45.4886 29.3879 44.8977C28.8652 44.2955 28.1322 43.7955 27.1891 43.3977C26.2572 42.9886 25.1663 42.625 23.9163 42.3068L19.9447 41.2841C17.0697 40.5455 14.797 39.4261 13.1266 37.9261C11.4675 36.4148 10.6379 34.4091 10.6379 31.9091C10.6379 29.8523 11.1947 28.0511 12.3084 26.5057C13.4334 24.9602 14.9618 23.7614 16.8936 22.9091C18.8254 22.0455 21.0129 21.6136 23.4561 21.6136C25.9334 21.6136 28.1038 22.0455 29.9675 22.9091C31.8425 23.7614 33.3141 24.9489 34.3822 26.4716C35.4504 27.983 36.0016 29.7216 36.0356 31.6875H29.9504ZM46.8212 22.0909L55.9064 49.5682H56.2643L65.3325 22.0909H72.2871L59.9802 57H52.1734L39.8837 22.0909H46.8212ZM98.3964 33.2386C98.1124 32.3182 97.7203 31.4943 97.2203 30.767C96.7317 30.0284 96.1408 29.3977 95.4476 28.875C94.7658 28.3523 93.9817 27.9602 93.0953 27.6989C92.2089 27.4261 91.243 27.2898 90.1976 27.2898C88.3226 27.2898 86.6521 27.7614 85.1862 28.7045C83.7203 29.6477 82.5669 31.0341 81.726 32.8636C80.8964 34.6818 80.4817 36.8977 80.4817 39.5114C80.4817 42.1477 80.8964 44.3807 81.726 46.2102C82.5555 48.0398 83.7089 49.4318 85.1862 50.3864C86.6635 51.3295 88.3794 51.8011 90.3339 51.8011C92.1067 51.8011 93.6408 51.4602 94.9362 50.7784C96.243 50.0966 97.2487 49.1307 97.9533 47.8807C98.6578 46.6193 99.0101 45.142 99.0101 43.4489L100.442 43.6705H90.9646V38.7273H105.129V42.9205C105.129 45.9091 104.493 48.4943 103.22 50.6761C101.948 52.858 100.198 54.5398 97.9703 55.7216C95.743 56.892 93.1862 57.4773 90.2998 57.4773C87.0839 57.4773 84.2601 56.7557 81.8283 55.3125C79.4078 53.858 77.5158 51.7955 76.1521 49.125C74.7998 46.4432 74.1237 43.2614 74.1237 39.5795C74.1237 36.7614 74.5214 34.2443 75.3169 32.0284C76.1237 29.8125 77.2487 27.9318 78.6919 26.3864C80.1351 24.8295 81.8283 23.6477 83.7714 22.8409C85.7146 22.0227 87.8283 21.6136 90.1123 21.6136C92.0442 21.6136 93.8453 21.8977 95.5158 22.4659C97.1862 23.0227 98.6692 23.8182 99.9646 24.8523C101.271 25.8864 102.345 27.1136 103.186 28.5341C104.027 29.9545 104.578 31.5227 104.84 33.2386H98.3964Z" fill="white"/>
<path d="M140.444 11.0493C140.862 11.0398 141.278 11.0356 141.696 11.0419C143.879 10.9925 146.297 10.9771 148.476 11.0497C148.557 12.2681 148.503 13.5173 148.502 14.7387L148.502 20.4385C148.502 21.563 148.483 22.6906 148.516 23.8145C150.342 23.8949 152.203 23.7251 154.018 23.9244C153.658 24.5689 153.071 25.1059 152.561 25.6461L145.77 33.0176C145.344 33.4898 144.93 33.9846 144.431 34.3895C143.933 33.9632 143.492 33.4294 143.043 32.9544L136.981 26.4647C136.315 25.7555 135.14 24.8157 134.95 23.8629C135.543 23.7959 136.187 23.8411 136.787 23.8413L140.36 23.8438C140.433 22.6841 140.398 21.5128 140.399 20.3507L140.398 14.94C140.398 13.6421 140.38 12.3462 140.444 11.0493Z" fill="white"/>
<path d="M156.391 35.736C156.351 34.9113 156.365 34.0832 156.365 33.2579L156.365 26.2611C156.365 20.5802 157.355 18.7425 161.939 14.8187L165.188 12.0219C166.722 13.0208 169.614 15.9713 171.107 17.3633C166.293 21.8785 163.938 22.2512 163.936 29.0219L163.935 31.51C163.935 33.3588 163.899 35.2145 163.971 37.0617C164.062 39.4154 162.905 39.8562 161.026 40.713C157.898 42.1391 154.779 43.8316 151.646 45.3428C149.383 46.435 146.848 48.2822 144.216 48.3242C142.422 48.3528 140.782 47.2917 139.261 46.5168L129.78 41.7269C128.153 40.9273 125.452 40.0831 125.051 38.2061C124.903 37.5133 125.01 36.0225 125.009 35.2454L125.009 29.4429C125.009 25.5472 125.069 23.8846 121.789 20.8242C120.499 19.6107 119.039 18.5552 117.775 17.3252C118.195 16.9677 118.578 16.5648 118.988 16.1957L122.299 13.27C122.752 12.8743 123.192 12.4536 123.671 12.086C127.071 15.202 131.177 17.5437 132.269 22.3501C132.635 23.9615 132.532 25.6988 132.531 27.3373L132.53 32.7113C132.53 33.7316 132.502 34.76 132.545 35.7791C132.896 35.9307 133.234 36.1345 133.576 36.3052L136.278 37.6696C137.673 38.3814 139.1 39.0375 140.486 39.765C141.568 40.3331 143.574 41.8579 144.871 41.4614C145.989 41.1199 147.656 40.0958 148.758 39.5247C151.269 38.2233 153.806 36.8926 156.391 35.736Z" fill="white"/>
<path d="M169.583 45.6483C167.781 46.4525 166.029 47.312 164.258 48.1729L150.478 54.9821C144.842 57.7719 144.405 57.9642 138.54 55.098L121.262 46.5582C120.267 46.0572 118.787 45.4904 117.93 44.8719C115.469 43.0946 116.452 39.2231 119.53 38.8966C120.77 38.751 122.007 39.6187 123.041 40.1466L130.984 44.1532C134.581 45.9344 138.231 47.9094 141.83 49.6165C144.874 51.0613 144.941 50.6125 147.767 49.1859L165.736 40.2147C167.113 39.5334 168.571 38.517 170.196 39.0693C171.945 39.6639 172.865 41.614 172.245 43.2636C171.779 44.5028 170.772 45.1071 169.583 45.6483Z" fill="white"/>
<path d="M169.623 57.7437L155.967 64.4579C153.298 65.7725 150.033 67.5045 147.229 68.5139C144.238 69.591 141.861 68.7126 139.211 67.4843L136.614 66.2899C135.53 65.7959 134.445 65.3048 133.375 64.7834L123.983 60.149C122.568 59.4452 118.722 57.6819 117.803 56.9452C115.526 55.1192 116.452 51.332 119.502 51.1017C120.727 51.0236 121.809 51.7925 122.836 52.3159L138.074 59.8898C139.779 60.728 141.668 61.8369 143.507 62.3765C144.883 62.7801 146.146 62.0609 147.345 61.4995C151.646 59.4845 156.019 57.3047 160.259 55.1813L167.274 51.6321C170.387 50.0842 173.274 52.4956 172.256 55.4071C171.821 56.6498 170.778 57.1882 169.623 57.7437Z" fill="white"/>
<path d="M202.879 31.6875C202.72 30.1989 202.05 29.0398 200.868 28.2102C199.697 27.3807 198.175 26.9659 196.3 26.9659C194.981 26.9659 193.851 27.1648 192.908 27.5625C191.964 27.9602 191.243 28.5 190.743 29.1818C190.243 29.8636 189.987 30.642 189.976 31.517C189.976 32.2443 190.14 32.875 190.47 33.4091C190.811 33.9432 191.271 34.3977 191.851 34.7727C192.43 35.1364 193.072 35.4432 193.777 35.6932C194.481 35.9432 195.192 36.1534 195.908 36.3239L199.18 37.142C200.498 37.4489 201.765 37.8636 202.981 38.3864C204.209 38.9091 205.305 39.5682 206.271 40.3636C207.248 41.1591 208.021 42.1193 208.589 43.2443C209.158 44.3693 209.442 45.6875 209.442 47.1989C209.442 49.2443 208.919 51.0455 207.873 52.6023C206.828 54.1477 205.317 55.358 203.339 56.233C201.373 57.0966 198.993 57.5284 196.197 57.5284C193.481 57.5284 191.123 57.108 189.123 56.267C187.135 55.4261 185.578 54.1989 184.453 52.5852C183.339 50.9716 182.737 49.0057 182.646 46.6875H188.868C188.959 47.9034 189.334 48.9148 189.993 49.7216C190.652 50.5284 191.51 51.1307 192.567 51.5284C193.635 51.9261 194.828 52.125 196.146 52.125C197.521 52.125 198.726 51.9205 199.76 51.5114C200.805 51.0909 201.623 50.5114 202.214 49.7727C202.805 49.0227 203.106 48.1477 203.118 47.1477C203.106 46.2386 202.839 45.4886 202.317 44.8977C201.794 44.2955 201.061 43.7955 200.118 43.3977C199.186 42.9886 198.095 42.625 196.845 42.3068L192.873 41.2841C189.998 40.5455 187.726 39.4261 186.055 37.9261C184.396 36.4148 183.567 34.4091 183.567 31.9091C183.567 29.8523 184.123 28.0511 185.237 26.5057C186.362 24.9602 187.89 23.7614 189.822 22.9091C191.754 22.0455 193.942 21.6136 196.385 21.6136C198.862 21.6136 201.033 22.0455 202.896 22.9091C204.771 23.7614 206.243 24.9489 207.311 26.4716C208.379 27.983 208.93 29.7216 208.964 31.6875H202.879ZM227.881 30.8182V35.5909H212.829V30.8182H227.881ZM216.545 24.5455H222.716V49.125C222.716 49.9545 222.841 50.5909 223.091 51.0341C223.352 51.4659 223.693 51.7614 224.114 51.9205C224.534 52.0795 225 52.1591 225.511 52.1591C225.898 52.1591 226.25 52.1307 226.568 52.0739C226.898 52.017 227.148 51.9659 227.318 51.9205L228.358 56.7443C228.028 56.858 227.557 56.983 226.943 57.1193C226.341 57.2557 225.602 57.3352 224.727 57.358C223.182 57.4034 221.79 57.1705 220.551 56.6591C219.312 56.1364 218.329 55.3295 217.602 54.2386C216.886 53.1477 216.534 51.7841 216.545 50.1477V24.5455ZM240.575 57.5284C238.916 57.5284 237.422 57.233 236.092 56.642C234.774 56.0398 233.729 55.1534 232.956 53.983C232.194 52.8125 231.814 51.3693 231.814 49.6534C231.814 48.1761 232.087 46.9545 232.632 45.9886C233.177 45.0227 233.922 44.25 234.865 43.6705C235.808 43.0909 236.871 42.6534 238.052 42.358C239.246 42.0511 240.479 41.8295 241.751 41.6932C243.285 41.5341 244.53 41.392 245.484 41.267C246.439 41.1307 247.132 40.9261 247.564 40.6534C248.007 40.3693 248.229 39.9318 248.229 39.3409V39.2386C248.229 37.9545 247.848 36.9602 247.087 36.2557C246.325 35.5511 245.229 35.1989 243.797 35.1989C242.285 35.1989 241.087 35.5284 240.2 36.1875C239.325 36.8466 238.734 37.625 238.427 38.5227L232.666 37.7045C233.121 36.1136 233.871 34.7841 234.916 33.7159C235.962 32.6364 237.24 31.8295 238.751 31.2955C240.263 30.75 241.933 30.4773 243.763 30.4773C245.024 30.4773 246.28 30.625 247.53 30.9205C248.78 31.2159 249.922 31.7045 250.956 32.3864C251.99 33.0568 252.819 33.9716 253.444 35.1307C254.081 36.2898 254.399 37.7386 254.399 39.4773V57H248.467V53.4034H248.263C247.888 54.1307 247.359 54.8125 246.677 55.4489C246.007 56.0739 245.16 56.5795 244.138 56.9659C243.126 57.3409 241.939 57.5284 240.575 57.5284ZM242.177 52.9943C243.416 52.9943 244.49 52.75 245.399 52.2614C246.308 51.7614 247.007 51.1023 247.496 50.2841C247.996 49.4659 248.246 48.5739 248.246 47.608V44.5227C248.052 44.6818 247.723 44.8295 247.257 44.9659C246.802 45.1023 246.291 45.2216 245.723 45.3239C245.155 45.4261 244.592 45.517 244.035 45.5966C243.479 45.6761 242.996 45.7443 242.587 45.8011C241.666 45.9261 240.842 46.1307 240.115 46.4148C239.388 46.6989 238.814 47.0966 238.393 47.608C237.973 48.108 237.763 48.7557 237.763 49.5511C237.763 50.6875 238.177 51.5455 239.007 52.125C239.837 52.7045 240.893 52.9943 242.177 52.9943ZM272.024 57.5114C269.41 57.5114 267.166 56.9375 265.291 55.7898C263.427 54.642 261.99 53.0568 260.979 51.0341C259.979 49 259.479 46.6591 259.479 44.0114C259.479 41.3523 259.99 39.0057 261.013 36.9716C262.035 34.9261 263.479 33.3352 265.342 32.1989C267.217 31.0511 269.433 30.4773 271.99 30.4773C274.115 30.4773 275.996 30.8693 277.632 31.6534C279.28 32.4261 280.592 33.5227 281.569 34.9432C282.547 36.3523 283.104 38 283.24 39.8864H277.342C277.104 38.625 276.535 37.5739 275.638 36.733C274.751 35.8807 273.564 35.4545 272.075 35.4545C270.814 35.4545 269.706 35.7955 268.751 36.4773C267.797 37.1477 267.052 38.1136 266.518 39.375C265.996 40.6364 265.734 42.1477 265.734 43.9091C265.734 45.6932 265.996 47.2273 266.518 48.5114C267.041 49.7841 267.774 50.767 268.717 51.4602C269.672 52.142 270.791 52.483 272.075 52.483C272.984 52.483 273.797 52.3125 274.513 51.9716C275.24 51.6193 275.848 51.1136 276.337 50.4545C276.825 49.7955 277.16 48.9943 277.342 48.0511H283.24C283.092 49.9034 282.547 51.5455 281.604 52.9773C280.66 54.3977 279.376 55.5114 277.751 56.3182C276.126 57.1136 274.217 57.5114 272.024 57.5114ZM293.932 48.7841L293.915 41.3352H294.903L304.312 30.8182H311.523L299.949 43.7045H298.67L293.932 48.7841ZM288.307 57V22.0909H294.477V57H288.307ZM304.739 57L296.216 45.0852L300.375 40.7386L312.119 57H304.739Z" fill="white"/>
</svg>
